<?xml version="1.0" encoding="utf-8"?>
<!-- Generator: Adobe Illustrator 17.0.0, SVG Export Plug-In . SVG Version: 6.00 Build 0)  -->
<!DOCTYPE svg PUBLIC "-//W3C//DTD SVG 1.1//EN" "http://www.w3.org/Graphics/SVG/1.1/DTD/svg11.dtd">
<svg version="1.1" id="Livello_1" xmlns="http://www.w3.org/2000/svg" xmlns:xlink="http://www.w3.org/1999/xlink" x="0px" y="0px"
	 width="120px" height="20px" viewBox="0 0 120 20" enable-background="new 0 0 120 20" xml:space="preserve">
<g>
	<path stroke="#000000" stroke-miterlimit="10" d="M3.38,3.269h2.718l3.69,5.48l3.708-5.48h2.664V17.39h-3.132v-5.84
		c0-0.681,0.06-1.614,0.18-2.801c-0.324,0.614-1.362,2.173-3.114,4.681h-0.63l-1.674-2.4c-0.853-1.227-1.326-1.987-1.422-2.28
		l0.144,3.9v4.74H3.38V3.269z"/>
	<path stroke="#000000" stroke-miterlimit="10" d="M24.656,2.989c1.044,0,1.982,0.153,2.817,0.46
		c0.834,0.307,1.593,0.787,2.277,1.44c1.428,1.347,2.142,3.133,2.142,5.36c0,2.268-0.681,4.07-2.043,5.41
		c-1.362,1.34-3.069,2.01-5.121,2.01c-2.064,0-3.768-0.626-5.112-1.88c-1.416-1.333-2.124-3.133-2.124-5.4
		c0-2.307,0.684-4.133,2.052-5.48C20.839,3.629,22.543,2.989,24.656,2.989z M24.709,14.55c1.08,0,1.992-0.391,2.736-1.17
		c0.744-0.78,1.116-1.777,1.116-2.991c0-1.28-0.357-2.316-1.071-3.11c-0.714-0.793-1.659-1.19-2.835-1.19
		c-1.152,0-2.082,0.376-2.79,1.13c-0.708,0.753-1.062,1.777-1.062,3.07c0,1.254,0.366,2.277,1.098,3.07
		C22.633,14.153,23.569,14.55,24.709,14.55z"/>
	<path stroke="#000000" stroke-miterlimit="10" d="M39.866,2.989c1.044,0,1.982,0.153,2.817,0.46
		c0.834,0.307,1.593,0.787,2.277,1.44c1.428,1.347,2.142,3.133,2.142,5.36c0,2.268-0.681,4.07-2.043,5.41
		c-1.362,1.34-3.069,2.01-5.121,2.01c-2.064,0-3.768-0.626-5.112-1.88c-1.416-1.333-2.124-3.133-2.124-5.4
		c0-2.307,0.684-4.133,2.052-5.48C36.049,3.629,37.753,2.989,39.866,2.989z M39.919,14.55c1.08,0,1.992-0.391,2.736-1.17
		c0.744-0.78,1.116-1.777,1.116-2.991c0-1.28-0.357-2.316-1.071-3.11c-0.714-0.793-1.659-1.19-2.835-1.19
		c-1.152,0-2.082,0.376-2.79,1.13c-0.708,0.753-1.062,1.777-1.062,3.07c0,1.254,0.366,2.277,1.098,3.07
		C37.843,14.153,38.779,14.55,39.919,14.55z"/>
	<path stroke="#000000" stroke-miterlimit="10" d="M61.483,3.269h5.166c1.044,0,1.95,0.287,2.718,0.86
		c0.864,0.64,1.296,1.527,1.296,2.66c0,1.454-0.528,2.46-1.584,3.02c1.681,0.467,2.521,1.667,2.521,3.6
		c0,1.36-0.475,2.387-1.422,3.08c-0.816,0.601-1.866,0.9-3.15,0.9h-5.544V3.269z M66.001,8.789c0.973,0,1.458-0.546,1.458-1.64
		c0-0.386-0.186-0.7-0.558-0.94c-0.288-0.16-0.642-0.24-1.062-0.24h-1.171v2.82H66.001z M66.415,14.709
		c1.309,0,1.962-0.526,1.962-1.579c0-1.08-0.63-1.62-1.89-1.62h-1.818v3.199H66.415z"/>
	<path stroke="#000000" stroke-miterlimit="10" d="M79.698,2.989c1.044,0,1.983,0.153,2.817,0.46s1.593,0.787,2.277,1.44
		c1.428,1.347,2.142,3.133,2.142,5.36c0,2.268-0.682,4.07-2.043,5.41c-1.362,1.34-3.069,2.01-5.121,2.01
		c-2.064,0-3.769-0.626-5.112-1.88c-1.416-1.333-2.124-3.133-2.124-5.4c0-2.307,0.685-4.133,2.053-5.48
		C75.883,3.629,77.586,2.989,79.698,2.989z M79.753,14.55c1.08,0,1.991-0.391,2.735-1.17c0.744-0.78,1.116-1.777,1.116-2.991
		c0-1.28-0.357-2.316-1.071-3.11s-1.659-1.19-2.835-1.19c-1.151,0-2.082,0.376-2.79,1.13s-1.062,1.777-1.062,3.07
		c0,1.254,0.366,2.277,1.098,3.07C77.677,14.153,78.612,14.55,79.753,14.55z"/>
	<path stroke="#000000" stroke-miterlimit="10" d="M94.908,2.989c1.044,0,1.983,0.153,2.817,0.46s1.593,0.787,2.277,1.44
		c1.428,1.347,2.142,3.133,2.142,5.36c0,2.268-0.682,4.07-2.043,5.41c-1.362,1.34-3.069,2.01-5.121,2.01
		c-2.064,0-3.769-0.626-5.112-1.88c-1.416-1.333-2.124-3.133-2.124-5.4c0-2.307,0.685-4.133,2.053-5.48
		C91.093,3.629,92.796,2.989,94.908,2.989z M94.963,14.55c1.08,0,1.991-0.391,2.735-1.17c0.744-0.78,1.116-1.777,1.116-2.991
		c0-1.28-0.357-2.316-1.071-3.11s-1.659-1.19-2.835-1.19c-1.151,0-2.082,0.376-2.79,1.13s-1.062,1.777-1.062,3.07
		c0,1.254,0.366,2.277,1.098,3.07C92.887,14.153,93.822,14.55,94.963,14.55z"/>
	<path stroke="#000000" stroke-miterlimit="10" d="M103.711,3.269h2.718l3.689,5.48l3.708-5.48h2.664V17.39h-3.132v-5.84
		c0-0.681,0.06-1.614,0.18-2.801c-0.323,0.614-1.361,2.173-3.113,4.681h-0.63l-1.675-2.4c-0.852-1.227-1.326-1.987-1.422-2.28
		l0.145,3.9v4.74h-3.132V3.269z"/>
</g>
<g>
	<path fill="none" d="M52.618,7.259c-0.798,0.82-1.197,1.897-1.197,3.23c0,1.227,0.42,2.22,1.26,2.98
		c0.768,0.707,1.722,1.06,2.862,1.06c0.353,0,0.74-0.066,1.145-0.167V6.151c-0.36-0.081-0.706-0.122-1.037-0.122
		C54.427,6.029,53.416,6.439,52.618,7.259z"/>
	<path fill="#F1F2F2" stroke="#000000" stroke-width="1.1" stroke-miterlimit="10" d="M57.847,6.529
		c0.275,0.12,0.955,0.48,2.035,1.08v-3.24c-1.051-0.644-2.116-1.048-3.194-1.241v3.024C57.059,6.235,57.445,6.36,57.847,6.529z"/>
	<path stroke="#000000" stroke-width="1.1" stroke-miterlimit="10" d="M55.543,14.529c-1.14,0-2.094-0.353-2.862-1.06
		c-0.84-0.761-1.26-1.754-1.26-2.98c0-1.333,0.399-2.41,1.197-3.23c0.798-0.82,1.809-1.23,3.033-1.23
		c0.331,0,0.677,0.041,1.037,0.122V3.128c-0.463-0.083-0.928-0.138-1.396-0.138c-2.088,0-3.804,0.693-5.148,2.08
		c-1.38,1.44-2.07,3.313-2.07,5.62c0,2.041,0.713,3.734,2.142,5.081c1.356,1.267,2.97,1.899,4.842,1.899
		c0.525,0,1.072-0.087,1.63-0.214v-3.093C56.283,14.463,55.896,14.529,55.543,14.529z"/>
	<path fill="#F1F2F2" stroke="#000000" stroke-width="1.1" stroke-miterlimit="10" d="M60.024,12.789
		c-1.261,0.819-2.368,1.333-3.337,1.573v3.093c1.05-0.239,2.152-0.678,3.319-1.365L60.024,12.789z"/>
</g>
</svg>
